<svg xmlns="http://www.w3.org/2000/svg" xmlns:xlink="http://www.w3.org/1999/xlink" version="1.1" id="v-2" width="1709.4166259765625" height="508.1499938964844"><style type="text/css">.viewport { user-select: none; }
[magnet="true"]:not(.element) { cursor: crosshair; }
[magnet="true"]:not(.element):hover { opacity: 0.7; }
.element { cursor: move; }
.element * { vector-effect: non-scaling-stroke; }
.connection-wrap { fill: none; stroke: rgb(0, 0, 0); stroke-width: 15px; stroke-linecap: round; stroke-linejoin: round; opacity: 0; cursor: move; }
.connection-wrap:hover { opacity: 0.4; stroke-opacity: 0.4; }
.connection { fill: none; stroke-linejoin: round; }
.marker-source, .marker-target { vector-effect: non-scaling-stroke; }
.marker-vertices { opacity: 0; cursor: move; }
.marker-arrowheads { opacity: 0; cursor: grab; }
.link-tools { opacity: 0; cursor: pointer; }
.link-tools .tool-options { display: none; }
.link-tools .tool-remove circle { fill: red; }
.link-tools .tool-remove path { fill: rgb(255, 255, 255); }
.link:hover .marker-vertices, .link:hover .marker-arrowheads, .link:hover .link-tools { opacity: 1; }
.marker-vertex { fill: rgb(26, 188, 156); }
.marker-vertex:hover { fill: rgb(52, 73, 94); stroke: none; }
.marker-arrowhead { fill: rgb(26, 188, 156); }
.marker-arrowhead:hover { fill: rgb(243, 156, 18); stroke: none; }
.marker-vertex-remove { cursor: pointer; opacity: 0.1; fill: rgb(255, 255, 255); }
.marker-vertex-group:hover .marker-vertex-remove { opacity: 1; }
.marker-vertex-remove-area { opacity: 0.1; cursor: pointer; }
.marker-vertex-group:hover .marker-vertex-remove-area { opacity: 1; }
.highlighted { opacity: 0.7; }
text.highlighted { fill: red; }
@media screen and (-webkit-min-device-pixel-ratio: 0) {
  .highlighted { outline: red solid 2px; opacity: initial; }
}
.element .fobj { overflow: hidden; }
.element .fobj body { background-color: transparent; margin: 0px; }
.element .fobj div { text-align: center; vertical-align: middle; display: table-cell; padding: 0px 5px; }
svg { font-family: sans-serif; }
.connection { stroke: rgb(153, 153, 153); }
.connection.error { stroke: rgb(255, 0, 0); }
.connection-wrap { stroke-linecap: butt; transition: 0.5s linear 0.2s; }
.connection-wrap:hover { stroke: black; stroke-width: 9px; transition: all; }
.marker-arrowhead, .marker-vertex { fill: rgb(255, 255, 255); stroke: rgb(127, 140, 141); stroke-opacity: 0.4; stroke-width: 2px; }
.marker-arrowhead:hover, .marker-vertex:hover { fill: rgb(236, 240, 241); stroke: rgb(189, 195, 199); }
.marker-vertex-remove-area { fill: white; stroke: rgb(204, 204, 204); stroke-opacity: 0.5; }
.marker-vertex-remove-group:hover .marker-vertex-remove-area { transition: fill 1s; fill: rgb(231, 76, 60); stroke: rgb(192, 57, 43); }
.marker-vertex-remove { stroke: rgb(238, 238, 238); }
.marker-vertex-remove-group:hover .marker-vertex-remove { stroke: none; }
.live .connection { stroke: rgb(46, 204, 113); stroke-width: 3px; }
.live .connection-wrap { stroke: rgb(46, 204, 113); }
.element.live .body { fill: rgb(46, 204, 113); stroke: rgb(39, 174, 96); }
.element.live text { fill: rgb(255, 255, 255); }
.ui-draggable { cursor: move; }
.block .label { font-family: sans; font-size: 17px; fill: black; }
.block .resize-left { cursor: ew-resize; }
.block .resize-right { cursor: ew-resize; }
.block .number { fill: rgb(0, 0, 0); opacity: 0.5; font-size: 8px; }
.block .body { fill: rgb(236, 240, 241); }
.qed .block.conclusion .body { fill: rgb(40, 220, 30); }
.block:hover .body { fill: white; }
.qed .block.conclusion:hover .body { fill: rgb(170, 255, 170); }
.selected .block .body { stroke: blue; stroke-opacity: 1; }
.port-body[magnet="true"]:hover { fill: black; }
.tool-remove { opacity: 0; cursor: pointer; }
.link:hover .tool-remove { opacity: 1; }
.block:hover .tool-remove { opacity: 1; }
.tool-remove circle { fill: white; stroke: rgb(204, 204, 204); stroke-width: 1px; stroke-opacity: 0.5; }
.tool-remove:hover circle { fill: rgb(231, 76, 60); stroke: rgb(192, 57, 43); }
.tool-remove path { stroke: rgb(204, 204, 204); }
.tool-remove circle { transition: fill 1s; }
.tool-remove:hover path { stroke: none; }
.element * { vector-effect: none; }</style><g id="v-3" class="viewport" transform="translate(-468.12679234822576,-530.3331698099772) scale(1.9063600888593095,1.9063600888593095)"><g id="j_63" model-id="707b0818-2187-4d6a-9882-0ae929988b55" class="element incredible Generic joint-theme-default" magnet="false" fill="#ffffff" stroke="none" transform="translate(630,440)"><g class="block" id="v-4076"><path class="body" fill="#ecf0f1" stroke="#bdc3c7" stroke-opacity="0.5" id="v-4081" d="M-50 0 a 17.5 17.5 0 0 1 17.5 -17.5 h77.5 a 5 5 0 0 1 5 5 v25 a 5 5 0 0 1 -5 5 h-77.5 a 17.5 17.5 0 0 1 -17.5 -17.5 Z"></path><text class="number" id="v-4077" y="0.8em" display="null" xml:space="preserve" transform="translate(40.55000019073486,7.75)"><tspan dy="0em" x="0" id="v-4078" class="v-line">1</tspan></text><text class="label center" id="v-4079" y="0.8em" display="null" xml:space="preserve" transform="translate(-40.61666488647461,-9.475000381469727)"><tspan dy="0em" x="0" id="v-4080" class="v-line">(A→B)→A</tspan></text><g id="v-4082" class="port-wrap-out" transform="translate(50,0)"><path class="port-body" stroke="none" fill="#777" id="v-4083" magnet="true" port="out" direction="out" orientation="right" d="M-5,-5 l 0 5 a5,5 0 1,0 5,-5 z" transform="rotate(135)"></path></g></g></g><g id="j_64" model-id="ea327f23-5324-447c-90c7-d25da61708bf" class="element incredible Generic joint-theme-default qed" magnet="false" fill="#ffffff" stroke="none" transform="translate(1090,390)"><g class="block conclusion" id="v-4084"><path class="body" fill="#ecf0f1" stroke="#bdc3c7" stroke-opacity="0.5" id="v-4089" d="M-40 0 v-12.5 a 5 5 0 0 1 5 -5 h62.5 a 17.5 17.5 0 0 1 17.5 17.5 a 17.5 17.5 0 0 1 -17.5 17.5 h-62.5 a 5 5 0 0 1 -5 -5 v-12.5 Z"></path><text class="number" id="v-4085" y="0.8em" display="null" xml:space="preserve" transform="translate(30.550000190734863,7.75)"><tspan dy="0em" x="0" id="v-4086" class="v-line">2</tspan></text><text class="label center" id="v-4087" y="0.8em" display="null" xml:space="preserve" transform="translate(-6.141666889190674,-9.333333015441895)"><tspan dy="0em" x="0" id="v-4088" class="v-line">A</tspan></text><g id="v-4090" class="port-wrap-in" transform="translate(-40,0)"><path class="port-body" stroke="none" fill="#777" id="v-4091" magnet="true" port="in" direction="in" orientation="left" d="M0,0 l 0 5 a5,5 0 1,1 5,-5 z" transform="rotate(135)"></path></g></g></g><g id="j_98" model-id="a2cc373e-e004-4194-b62b-1d4d04017711" class="element incredible Generic joint-theme-default" magnet="false" fill="#ffffff" stroke="none" transform="translate(480,390)"><g class="block" id="v-6612"><path class="body" fill="#ecf0f1" stroke="#bdc3c7" stroke-opacity="0.5" id="v-6619" d="M-50 0 v-12.5 a 5 5 0 0 1 5 -5 h20 a 5 5 0 0 1 5 5 v9 h20 h500 v-9 a 5 5 0 0 1 5 -5 h0 a 5 5 0 0 1 5 5 v12.5 v12.5 a 5 5 0 0 1 -5 5 h0 a 5 5 0 0 1 -5 -5 v-9 h-500 h-20 v9 a 5 5 0 0 1 -5 5 h-20 a 5 5 0 0 1 -5 -5 v-12.5 Z"></path><text class="number" id="v-6613" y="0.8em" display="null" xml:space="preserve" transform="translate(500.55000019073486,7.75)"><tspan dy="0em" x="0" id="v-6614" class="v-line">3</tspan></text><text class="label left" id="v-6615" y="0.8em" display="null" xml:space="preserve" transform="translate(-40,-8)"><tspan dy="0em" x="0" id="v-6616" class="v-line">∨</tspan></text><rect class="resize-left" opacity="0" event="resize-left" id="v-6617" transform="translate(-50,-15)" width="30" height="30"></rect><rect class="resize-right" opacity="0" event="resize-right" id="v-6618" transform="translate(500,-15)" width="10" height="30"></rect><g id="v-6620" class="port-wrap-hyp1" transform="translate(-20,-10)"><path class="port-body" stroke="none" fill="#777" id="v-6621" magnet="true" port="hyp1" direction="out" orientation="right" d="M-5,-5 l 0 5 a5,5 0 1,0 5,-5 z" transform="rotate(135)"></path></g><g id="v-6622" class="port-wrap-hyp2" transform="translate(-20,10)"><path class="port-body" stroke="none" fill="#777" id="v-6623" magnet="true" port="hyp2" direction="out" orientation="right" d="M-5,-5 l 0 5 a5,5 0 1,0 5,-5 z" transform="rotate(135)"></path></g><g id="v-6624" class="port-wrap-in" transform="translate(-50,0)"><path class="port-body" stroke="none" fill="#777" id="v-6625" magnet="true" port="in" direction="in" orientation="left" d="M0,0 l 0 5 a5,5 0 1,1 5,-5 z" transform="rotate(135)"></path></g><g id="v-6626" class="port-wrap-in1" transform="translate(500,-10)"><path class="port-body" stroke="none" fill="#777" id="v-6627" magnet="true" port="in1" direction="in" orientation="left" d="M0,0 l 0 5 a5,5 0 1,1 5,-5 z" transform="rotate(135)"></path></g><g id="v-6628" class="port-wrap-in2" transform="translate(500,10)"><path class="port-body" stroke="none" fill="#777" id="v-6629" magnet="true" port="in2" direction="in" orientation="left" d="M0,0 l 0 5 a5,5 0 1,1 5,-5 z" transform="rotate(135)"></path></g><g id="v-6630" class="port-wrap-out" transform="translate(510,0)"><path class="port-body" stroke="none" fill="#777" id="v-6631" magnet="true" port="out" direction="out" orientation="right" d="M-5,-5 l 0 5 a5,5 0 1,0 5,-5 z" transform="rotate(135)"></path></g><g class="tool-remove" event="remove" id="v-6632" transform="translate(512.5,-26)"><circle r="11"></circle><path transform="scale(.8) translate(-16, -16)" d="M24.778,21.419 19.276,15.917 24.777,10.415 21.949,7.585 16.447,13.087 10.945,7.585 8.117,10.415 13.618,15.917 8.116,21.419 10.946,24.248 16.447,18.746 21.948,24.248z"></path><title id="v-6633" y="0.8em" display="null" xml:space="preserve"><tspan dy="0em" x="0" id="v-6634" class="v-line">Remove&#160;element</tspan></title></g></g></g><g id="j_99" model-id="1ac83bd0-1f52-4445-b704-5da5a580bdb5" class="incredible Link link joint-theme-default" style="pointer-events: visiblepainted;"><path class="connection" stroke="black" d="M 997 390 1004 390 S 1010 390 1020 390 L 1020 390 S 1030 390 1037 390 L 1043 390" id="v-6635" stroke-width="2"></path><path class="marker-source" fill="black" stroke="black" d="M 0 0 0 0" id="v-6636" transform="translate(997,390) scale(1,1) rotate(0)"></path><path class="marker-target" fill="black" stroke="black" d="M 0 0 0 0" id="v-6637" transform="translate(1043,390) scale(1,1) rotate(-180)"></path><path class="connection-wrap" d="M 997 390 1004 390 S 1010 390 1020 390 L 1020 390 S 1030 390 1037 390 L 1043 390" id="v-6638"></path><g class="labels" id="v-6639"><g class="label" id="v-8030" label-idx="0" transform="translate(1020, 390)"><rect fill="white" rx="3" ry="3" x="-4.7166666984558105" y="-9.508333086967468" width="9.449999809265137" height="15.75"></rect><text text-anchor="middle" font-size="14" id="v-8031" y="0.8em" display="null" xml:space="preserve" transform="translate(0,-7.875)"><tspan dy="0em" x="0" id="v-8032" class="v-line">A</tspan></text></g></g><g class="marker-vertices" id="v-6640"></g><g class="marker-arrowheads" id="v-6641"><g class="marker-arrowhead-group marker-arrowhead-group-source" id="v-6644" transform="translate(1000.5,390) scale(0.5,0.5) rotate(0)"><circle class="marker-arrowhead" end="source" r="7"></circle></g><g class="marker-arrowhead-group marker-arrowhead-group-target" id="v-6645" transform="translate(1039.5,390) scale(0.5,0.5) rotate(-180)"><circle class="marker-arrowhead" end="target" r="7"></circle></g></g><g class="link-tools" id="v-6642"><g class="link-tool" id="v-6643" transform="translate(1017, 390) scale(.5)"><g class="tool-remove" event="remove"><circle r="11"></circle><path transform="scale(.8) translate(-16, -16)" d="M24.778,21.419 19.276,15.917 24.777,10.415 21.949,7.585 16.447,13.087 10.945,7.585 8.117,10.415 13.618,15.917 8.116,21.419 10.946,24.248 16.447,18.746 21.948,24.248z"></path><title>Remove link.</title></g><g class="tool-options" event="link:options"><circle r="11" transform="translate(25)"></circle><path fill="white" transform="scale(.55) translate(29, -16)" d="M31.229,17.736c0.064-0.571,0.104-1.148,0.104-1.736s-0.04-1.166-0.104-1.737l-4.377-1.557c-0.218-0.716-0.504-1.401-0.851-2.05l1.993-4.192c-0.725-0.91-1.549-1.734-2.458-2.459l-4.193,1.994c-0.647-0.347-1.334-0.632-2.049-0.849l-1.558-4.378C17.165,0.708,16.588,0.667,16,0.667s-1.166,0.041-1.737,0.105L12.707,5.15c-0.716,0.217-1.401,0.502-2.05,0.849L6.464,4.005C5.554,4.73,4.73,5.554,4.005,6.464l1.994,4.192c-0.347,0.648-0.632,1.334-0.849,2.05l-4.378,1.557C0.708,14.834,0.667,15.412,0.667,16s0.041,1.165,0.105,1.736l4.378,1.558c0.217,0.715,0.502,1.401,0.849,2.049l-1.994,4.193c0.725,0.909,1.549,1.733,2.459,2.458l4.192-1.993c0.648,0.347,1.334,0.633,2.05,0.851l1.557,4.377c0.571,0.064,1.148,0.104,1.737,0.104c0.588,0,1.165-0.04,1.736-0.104l1.558-4.377c0.715-0.218,1.399-0.504,2.049-0.851l4.193,1.993c0.909-0.725,1.733-1.549,2.458-2.458l-1.993-4.193c0.347-0.647,0.633-1.334,0.851-2.049L31.229,17.736zM16,20.871c-2.69,0-4.872-2.182-4.872-4.871c0-2.69,2.182-4.872,4.872-4.872c2.689,0,4.871,2.182,4.871,4.872C20.871,18.689,18.689,20.871,16,20.871z"></path><title>Link options.</title></g></g></g></g><g id="j_100" model-id="20693431-8d64-42ea-a0bc-3639ceb5990a" class="element incredible Generic joint-theme-default" magnet="false" fill="#ffffff" stroke="none" transform="translate(290,390)"><g class="block" id="v-6663"><rect class="body" fill="#ecf0f1" rx="5" ry="5" stroke="#bdc3c7" stroke-opacity="0.5" id="v-6668" width="80" height="35" transform="translate(-40,-17.5)"></rect><text class="number" id="v-6664" y="0.8em" display="null" xml:space="preserve" transform="translate(30.550000190734863,7.75)"><tspan dy="0em" x="0" id="v-6665" class="v-line">4</tspan></text><text class="label center" id="v-6666" y="0.8em" display="null" xml:space="preserve" transform="translate(-17.475000381469727,-9.333333015441895)"><tspan dy="0em" x="0" id="v-6667" class="v-line">TND</tspan></text><g id="v-6669" class="port-wrap-out" transform="translate(40,0)"><path class="port-body" stroke="none" fill="#777" id="v-6670" magnet="true" port="out" direction="out" orientation="right" d="M-5,-5 l 0 5 a5,5 0 1,0 5,-5 z" transform="rotate(135)"></path></g><g class="tool-remove" event="remove" id="v-6671" transform="translate(20,-17.5)"><circle r="11"></circle><path transform="scale(.8) translate(-16, -16)" d="M24.778,21.419 19.276,15.917 24.777,10.415 21.949,7.585 16.447,13.087 10.945,7.585 8.117,10.415 13.618,15.917 8.116,21.419 10.946,24.248 16.447,18.746 21.948,24.248z"></path><title id="v-6672" y="0.8em" display="null" xml:space="preserve"><tspan dy="0em" x="0" id="v-6673" class="v-line">Remove&#160;element</tspan></title></g></g></g><g id="j_101" model-id="f80ead1f-a9ab-4ebb-ad4d-289dba89b1f9" class="incredible Link link joint-theme-default" style="pointer-events: visiblepainted;"><path class="connection" stroke="black" d="M 337 390 344 390 S 350 390 360 390 L 400 390 S 410 390 417 390 L 423 390" id="v-6678" stroke-width="2"></path><path class="marker-source" fill="black" stroke="black" d="M 0 0 0 0" id="v-6679" transform="translate(337,390) scale(1,1) rotate(0)"></path><path class="marker-target" fill="black" stroke="black" d="M 0 0 0 0" id="v-6680" transform="translate(423,390) scale(1,1) rotate(-180)"></path><path class="connection-wrap" d="M 337 390 344 390 S 350 390 360 390 L 400 390 S 410 390 417 390 L 423 390" id="v-6681"></path><g class="labels" id="v-6682"><g class="label" id="v-8034" label-idx="0" transform="translate(380, 390)"><rect fill="white" rx="3" ry="3" x="-32.166664123535156" y="-13.299999237060547" width="64.28333282470703" height="18.66666603088379"></rect><text text-anchor="middle" font-size="14" id="v-8035" y="0.8em" display="null" xml:space="preserve" transform="translate(0,-9.333333015441895)"><tspan dy="0em" x="0" id="v-8036" class="v-line">A∨(A→⊥)</tspan></text></g></g><g class="marker-vertices" id="v-6683"></g><g class="marker-arrowheads" id="v-6684"><g class="marker-arrowhead-group marker-arrowhead-group-source" id="v-6687" transform="translate(340.5,390) scale(0.5,0.5) rotate(0)"><circle class="marker-arrowhead" end="source" r="7"></circle></g><g class="marker-arrowhead-group marker-arrowhead-group-target" id="v-6688" transform="translate(419.5,390) scale(0.5,0.5) rotate(-180)"><circle class="marker-arrowhead" end="target" r="7"></circle></g></g><g class="link-tools" id="v-6685"><g class="link-tool" id="v-6686" transform="translate(357, 390) scale(.5)"><g class="tool-remove" event="remove"><circle r="11"></circle><path transform="scale(.8) translate(-16, -16)" d="M24.778,21.419 19.276,15.917 24.777,10.415 21.949,7.585 16.447,13.087 10.945,7.585 8.117,10.415 13.618,15.917 8.116,21.419 10.946,24.248 16.447,18.746 21.948,24.248z"></path><title>Remove link.</title></g><g class="tool-options" event="link:options"><circle r="11" transform="translate(25)"></circle><path fill="white" transform="scale(.55) translate(29, -16)" d="M31.229,17.736c0.064-0.571,0.104-1.148,0.104-1.736s-0.04-1.166-0.104-1.737l-4.377-1.557c-0.218-0.716-0.504-1.401-0.851-2.05l1.993-4.192c-0.725-0.91-1.549-1.734-2.458-2.459l-4.193,1.994c-0.647-0.347-1.334-0.632-2.049-0.849l-1.558-4.378C17.165,0.708,16.588,0.667,16,0.667s-1.166,0.041-1.737,0.105L12.707,5.15c-0.716,0.217-1.401,0.502-2.05,0.849L6.464,4.005C5.554,4.73,4.73,5.554,4.005,6.464l1.994,4.192c-0.347,0.648-0.632,1.334-0.849,2.05l-4.378,1.557C0.708,14.834,0.667,15.412,0.667,16s0.041,1.165,0.105,1.736l4.378,1.558c0.217,0.715,0.502,1.401,0.849,2.049l-1.994,4.193c0.725,0.909,1.549,1.733,2.459,2.458l4.192-1.993c0.648,0.347,1.334,0.633,2.05,0.851l1.557,4.377c0.571,0.064,1.148,0.104,1.737,0.104c0.588,0,1.165-0.04,1.736-0.104l1.558-4.377c0.715-0.218,1.399-0.504,2.049-0.851l4.193,1.993c0.909-0.725,1.733-1.549,2.458-2.458l-1.993-4.193c0.347-0.647,0.633-1.334,0.851-2.049L31.229,17.736zM16,20.871c-2.69,0-4.872-2.182-4.872-4.871c0-2.69,2.182-4.872,4.872-4.872c2.689,0,4.871,2.182,4.871,4.872C20.871,18.689,18.689,20.871,16,20.871z"></path><title>Link options.</title></g></g></g></g><g id="j_102" model-id="c049f71f-db1b-4592-91e5-6383ab49de6c" class="incredible Link link joint-theme-default" style="pointer-events: visiblepainted;"><path class="connection" stroke="black" d="M 467 380 474 380 S 480 380 490 380 L 950 380 S 960 380 967 380 L 973 380" id="v-6713" stroke-width="2"></path><path class="marker-source" fill="black" stroke="black" d="M 0 0 0 0" id="v-6714" transform="translate(467,380) scale(1,1) rotate(0)"></path><path class="marker-target" fill="black" stroke="black" d="M 0 0 0 0" id="v-6715" transform="translate(973,380) scale(1,1) rotate(-180)"></path><path class="connection-wrap" d="M 467 380 474 380 S 480 380 490 380 L 950 380 S 960 380 967 380 L 973 380" id="v-6716"></path><g class="labels" id="v-6717"><g class="label" id="v-8038" label-idx="0" transform="translate(720, 380)"><rect fill="white" rx="3" ry="3" x="-4.7166666984558105" y="-9.508333086967468" width="9.449999809265137" height="15.75"></rect><text text-anchor="middle" font-size="14" id="v-8039" y="0.8em" display="null" xml:space="preserve" transform="translate(0,-7.875)"><tspan dy="0em" x="0" id="v-8040" class="v-line">A</tspan></text></g></g><g class="marker-vertices" id="v-6718"></g><g class="marker-arrowheads" id="v-6719"><g class="marker-arrowhead-group marker-arrowhead-group-source" id="v-6722" transform="translate(474,380) scale(1,1) rotate(0)"><circle class="marker-arrowhead" end="source" r="7"></circle></g><g class="marker-arrowhead-group marker-arrowhead-group-target" id="v-6723" transform="translate(966,380) scale(1,1) rotate(-180)"><circle class="marker-arrowhead" end="target" r="7"></circle></g></g><g class="link-tools" id="v-6720"><g class="link-tool" id="v-6721" transform="translate(507, 380) "><g class="tool-remove" event="remove"><circle r="11"></circle><path transform="scale(.8) translate(-16, -16)" d="M24.778,21.419 19.276,15.917 24.777,10.415 21.949,7.585 16.447,13.087 10.945,7.585 8.117,10.415 13.618,15.917 8.116,21.419 10.946,24.248 16.447,18.746 21.948,24.248z"></path><title>Remove link.</title></g><g class="tool-options" event="link:options"><circle r="11" transform="translate(25)"></circle><path fill="white" transform="scale(.55) translate(29, -16)" d="M31.229,17.736c0.064-0.571,0.104-1.148,0.104-1.736s-0.04-1.166-0.104-1.737l-4.377-1.557c-0.218-0.716-0.504-1.401-0.851-2.05l1.993-4.192c-0.725-0.91-1.549-1.734-2.458-2.459l-4.193,1.994c-0.647-0.347-1.334-0.632-2.049-0.849l-1.558-4.378C17.165,0.708,16.588,0.667,16,0.667s-1.166,0.041-1.737,0.105L12.707,5.15c-0.716,0.217-1.401,0.502-2.05,0.849L6.464,4.005C5.554,4.73,4.73,5.554,4.005,6.464l1.994,4.192c-0.347,0.648-0.632,1.334-0.849,2.05l-4.378,1.557C0.708,14.834,0.667,15.412,0.667,16s0.041,1.165,0.105,1.736l4.378,1.558c0.217,0.715,0.502,1.401,0.849,2.049l-1.994,4.193c0.725,0.909,1.549,1.733,2.459,2.458l4.192-1.993c0.648,0.347,1.334,0.633,2.05,0.851l1.557,4.377c0.571,0.064,1.148,0.104,1.737,0.104c0.588,0,1.165-0.04,1.736-0.104l1.558-4.377c0.715-0.218,1.399-0.504,2.049-0.851l4.193,1.993c0.909-0.725,1.733-1.549,2.458-2.458l-1.993-4.193c0.347-0.647,0.633-1.334,0.851-2.049L31.229,17.736zM16,20.871c-2.69,0-4.872-2.182-4.872-4.871c0-2.69,2.182-4.872,4.872-4.872c2.689,0,4.871,2.182,4.871,4.872C20.871,18.689,18.689,20.871,16,20.871z"></path><title>Link options.</title></g></g></g></g><g id="j_104" model-id="67dce95b-bb8f-477e-a11f-b5c3e8ff9e87" class="incredible Link link joint-theme-default" style="pointer-events: visiblepainted;"><path class="connection" stroke="black" d="M 467 400 474 400 S 480 400 490 400 L 510 400 S 520 400 520 410 L 520 470 S 520 480 527 480 L 533 480" id="v-6837" stroke-width="2"></path><path class="marker-source" fill="black" stroke="black" d="M 0 0 0 0" id="v-6838" transform="translate(467,400) scale(1,1) rotate(0)"></path><path class="marker-target" fill="black" stroke="black" d="M 0 0 0 0" id="v-6839" transform="translate(533,480) scale(1,1) rotate(-180)"></path><path class="connection-wrap" d="M 467 400 474 400 S 480 400 490 400 L 510 400 S 520 400 520 410 L 520 470 S 520 480 527 480 L 533 480" id="v-6840"></path><g class="labels" id="v-6841"><g class="label" id="v-8042" label-idx="0" transform="translate(520, 420.36834716796875)"><rect fill="white" rx="3" ry="3" x="-17.366666793823242" y="-13.299999237060547" width="34.68333435058594" height="18.66666603088379"></rect><text text-anchor="middle" font-size="14" id="v-8043" y="0.8em" display="null" xml:space="preserve" transform="translate(0,-9.333333015441895)"><tspan dy="0em" x="0" id="v-8044" class="v-line">A→⊥</tspan></text></g></g><g class="marker-vertices" id="v-6842"></g><g class="marker-arrowheads" id="v-6843"><g class="marker-arrowhead-group marker-arrowhead-group-source" id="v-6846" transform="translate(474,400) scale(1,1) rotate(0)"><circle class="marker-arrowhead" end="source" r="7"></circle></g><g class="marker-arrowhead-group marker-arrowhead-group-target" id="v-6847" transform="translate(526,480) scale(1,1) rotate(-180)"><circle class="marker-arrowhead" end="target" r="7"></circle></g></g><g class="link-tools" id="v-6844"><g class="link-tool" id="v-6845" transform="translate(507, 400) "><g class="tool-remove" event="remove"><circle r="11"></circle><path transform="scale(.8) translate(-16, -16)" d="M24.778,21.419 19.276,15.917 24.777,10.415 21.949,7.585 16.447,13.087 10.945,7.585 8.117,10.415 13.618,15.917 8.116,21.419 10.946,24.248 16.447,18.746 21.948,24.248z"></path><title>Remove link.</title></g><g class="tool-options" event="link:options"><circle r="11" transform="translate(25)"></circle><path fill="white" transform="scale(.55) translate(29, -16)" d="M31.229,17.736c0.064-0.571,0.104-1.148,0.104-1.736s-0.04-1.166-0.104-1.737l-4.377-1.557c-0.218-0.716-0.504-1.401-0.851-2.05l1.993-4.192c-0.725-0.91-1.549-1.734-2.458-2.459l-4.193,1.994c-0.647-0.347-1.334-0.632-2.049-0.849l-1.558-4.378C17.165,0.708,16.588,0.667,16,0.667s-1.166,0.041-1.737,0.105L12.707,5.15c-0.716,0.217-1.401,0.502-2.05,0.849L6.464,4.005C5.554,4.73,4.73,5.554,4.005,6.464l1.994,4.192c-0.347,0.648-0.632,1.334-0.849,2.05l-4.378,1.557C0.708,14.834,0.667,15.412,0.667,16s0.041,1.165,0.105,1.736l4.378,1.558c0.217,0.715,0.502,1.401,0.849,2.049l-1.994,4.193c0.725,0.909,1.549,1.733,2.459,2.458l4.192-1.993c0.648,0.347,1.334,0.633,2.05,0.851l1.557,4.377c0.571,0.064,1.148,0.104,1.737,0.104c0.588,0,1.165-0.04,1.736-0.104l1.558-4.377c0.715-0.218,1.399-0.504,2.049-0.851l4.193,1.993c0.909-0.725,1.733-1.549,2.458-2.458l-1.993-4.193c0.347-0.647,0.633-1.334,0.851-2.049L31.229,17.736zM16,20.871c-2.69,0-4.872-2.182-4.872-4.871c0-2.69,2.182-4.872,4.872-4.872c2.689,0,4.871,2.182,4.871,4.872C20.871,18.689,18.689,20.871,16,20.871z"></path><title>Link options.</title></g></g></g></g><g id="j_105" model-id="38655df4-7f9f-4491-bdea-fe4372397f42" class="element incredible Generic joint-theme-default" magnet="false" fill="#ffffff" stroke="none" transform="translate(530,520)"><g class="block" id="v-6915"><path class="body" fill="#ecf0f1" stroke="#bdc3c7" stroke-opacity="0.5" id="v-6922" d="M-30 0 v-12.5 a 5 5 0 0 1 5 -5 h0 a 5 5 0 0 1 5 5 v9 h20 h250 v-9 a 5 5 0 0 1 5 -5 h20 a 5 5 0 0 1 5 5 v12.5 v12.5 a 5 5 0 0 1 -5 5 h-25 h-250 h-20 h-5 a 5 5 0 0 1 -5 -5 v-22.5 Z"></path><text class="number" id="v-6916" y="0.8em" display="null" xml:space="preserve" transform="translate(270.55000019073486,7.75)"><tspan dy="0em" x="0" id="v-6917" class="v-line">5</tspan></text><text class="label right" id="v-6918" y="0.8em" display="null" xml:space="preserve" transform="translate(257,-9)"><tspan dy="0em" x="0" id="v-6919" class="v-line">→</tspan></text><rect class="resize-left" opacity="0" event="resize-left" id="v-6920" transform="translate(-30,-15)" width="10" height="30"></rect><rect class="resize-right" opacity="0" event="resize-right" id="v-6921" transform="translate(250,-15)" width="30" height="30"></rect><g id="v-6923" class="port-wrap-hyp" transform="translate(-20,-10)"><path class="port-body" stroke="none" fill="#777" id="v-6924" magnet="true" port="hyp" direction="out" orientation="right" d="M-5,-5 l 0 5 a5,5 0 1,0 5,-5 z" transform="rotate(135)"></path></g><g id="v-6925" class="port-wrap-in" transform="translate(250,-10)"><path class="port-body" stroke="none" fill="#777" id="v-6926" magnet="true" port="in" direction="in" orientation="left" d="M0,0 l 0 5 a5,5 0 1,1 5,-5 z" transform="rotate(135)"></path></g><g id="v-6927" class="port-wrap-out" transform="translate(280,0)"><path class="port-body" stroke="none" fill="#777" id="v-6928" magnet="true" port="out" direction="out" orientation="right" d="M-5,-5 l 0 5 a5,5 0 1,0 5,-5 z" transform="rotate(135)"></path></g><g class="tool-remove" event="remove" id="v-6929" transform="translate(282.5,-26)"><circle r="11"></circle><path transform="scale(.8) translate(-16, -16)" d="M24.778,21.419 19.276,15.917 24.777,10.415 21.949,7.585 16.447,13.087 10.945,7.585 8.117,10.415 13.618,15.917 8.116,21.419 10.946,24.248 16.447,18.746 21.948,24.248z"></path><title id="v-6930" y="0.8em" display="null" xml:space="preserve"><tspan dy="0em" x="0" id="v-6931" class="v-line">Remove&#160;element</tspan></title></g></g></g><g id="j_107" model-id="63a7a72f-045c-4b03-9e01-9399a1b94333" class="element incredible Generic joint-theme-default" magnet="false" fill="#ffffff" stroke="none" transform="translate(580,490)"><g class="block" id="v-7012"><rect class="body" fill="#ecf0f1" rx="5" ry="5" stroke="#bdc3c7" stroke-opacity="0.5" id="v-7017" width="80" height="35" transform="translate(-40,-17.5)"></rect><text class="number" id="v-7013" y="0.8em" display="null" xml:space="preserve" transform="translate(30.550000190734863,7.75)"><tspan dy="0em" x="0" id="v-7014" class="v-line">6</tspan></text><text class="label left" id="v-7015" y="0.8em" display="null" xml:space="preserve" transform="translate(-28,-9)"><tspan dy="0em" x="0" id="v-7016" class="v-line">→</tspan></text><g id="v-7018" class="port-wrap-in1" transform="translate(-40,-10)"><path class="port-body" stroke="none" fill="#777" id="v-7019" magnet="true" port="in1" direction="in" orientation="left" d="M0,0 l 0 5 a5,5 0 1,1 5,-5 z" transform="rotate(135)"></path></g><g id="v-7020" class="port-wrap-in2" transform="translate(-40,10)"><path class="port-body" stroke="none" fill="#777" id="v-7021" magnet="true" port="in2" direction="in" orientation="left" d="M0,0 l 0 5 a5,5 0 1,1 5,-5 z" transform="rotate(135)"></path></g><g id="v-7022" class="port-wrap-out" transform="translate(40,0)"><path class="port-body" stroke="none" fill="#777" id="v-7023" magnet="true" port="out" direction="out" orientation="right" d="M-5,-5 l 0 5 a5,5 0 1,0 5,-5 z" transform="rotate(135)"></path></g><g class="tool-remove" event="remove" id="v-7024" transform="translate(20,-17.5)"><circle r="11"></circle><path transform="scale(.8) translate(-16, -16)" d="M24.778,21.419 19.276,15.917 24.777,10.415 21.949,7.585 16.447,13.087 10.945,7.585 8.117,10.415 13.618,15.917 8.116,21.419 10.946,24.248 16.447,18.746 21.948,24.248z"></path><title id="v-7025" y="0.8em" display="null" xml:space="preserve"><tspan dy="0em" x="0" id="v-7026" class="v-line">Remove&#160;element</tspan></title></g></g></g><g id="j_108" model-id="68c3cbc8-b0d0-44e8-a909-d30f1134ec8e" class="incredible Link link joint-theme-default" style="pointer-events: visiblepainted;"><path class="connection" stroke="black" d="M 510 503 510 502 S 509.99998474121094 500.0000305175781 520 500 L 530 500 S 540 500.0000305175781 537 500 L 533 500" id="v-7095" stroke-width="2"></path><path class="marker-source" fill="black" stroke="black" d="M 0 0 0 0" id="v-7096" transform="translate(510,503) scale(1,1) rotate(-90.00028991699156)"></path><path class="marker-target" fill="black" stroke="black" d="M 0 0 0 0" id="v-7097" transform="translate(533,500) scale(1,1) rotate(0.00024414062312416718)"></path><path class="connection-wrap" d="M 510 503 510 502 S 509.99998474121094 500.0000305175781 520 500 L 530 500 S 540 500.0000305175781 537 500 L 533 500" id="v-7098"></path><g class="labels" id="v-7099"><g class="label" id="v-8046" label-idx="0" transform="translate(524.7467651367188, 500)"><rect fill="white" rx="3" ry="3" x="-4.7166666984558105" y="-9.508333086967468" width="9.449999809265137" height="15.75"></rect><text text-anchor="middle" font-size="14" id="v-8047" y="0.8em" display="null" xml:space="preserve" transform="translate(0,-7.875)"><tspan dy="0em" x="0" id="v-8048" class="v-line">A</tspan></text></g></g><g class="marker-vertices" id="v-7100"></g><g class="marker-arrowheads" id="v-7101"><g class="marker-arrowhead-group marker-arrowhead-group-source" id="v-7104" transform="translate(509.9999694824219,499.5) scale(0.5,0.5) rotate(-90.00028991699156)"><circle class="marker-arrowhead" end="source" r="7"></circle></g><g class="marker-arrowhead-group marker-arrowhead-group-target" id="v-7105" transform="translate(536.5,500) scale(0.5,0.5) rotate(0.00024414062312416718)"><circle class="marker-arrowhead" end="target" r="7"></circle></g></g><g class="link-tools" id="v-7102"><g class="link-tool" id="v-7103" transform="translate(528.4935302734375, 500) scale(.5)"><g class="tool-remove" event="remove"><circle r="11"></circle><path transform="scale(.8) translate(-16, -16)" d="M24.778,21.419 19.276,15.917 24.777,10.415 21.949,7.585 16.447,13.087 10.945,7.585 8.117,10.415 13.618,15.917 8.116,21.419 10.946,24.248 16.447,18.746 21.948,24.248z"></path><title>Remove link.</title></g><g class="tool-options" event="link:options"><circle r="11" transform="translate(25)"></circle><path fill="white" transform="scale(.55) translate(29, -16)" d="M31.229,17.736c0.064-0.571,0.104-1.148,0.104-1.736s-0.04-1.166-0.104-1.737l-4.377-1.557c-0.218-0.716-0.504-1.401-0.851-2.05l1.993-4.192c-0.725-0.91-1.549-1.734-2.458-2.459l-4.193,1.994c-0.647-0.347-1.334-0.632-2.049-0.849l-1.558-4.378C17.165,0.708,16.588,0.667,16,0.667s-1.166,0.041-1.737,0.105L12.707,5.15c-0.716,0.217-1.401,0.502-2.05,0.849L6.464,4.005C5.554,4.73,4.73,5.554,4.005,6.464l1.994,4.192c-0.347,0.648-0.632,1.334-0.849,2.05l-4.378,1.557C0.708,14.834,0.667,15.412,0.667,16s0.041,1.165,0.105,1.736l4.378,1.558c0.217,0.715,0.502,1.401,0.849,2.049l-1.994,4.193c0.725,0.909,1.549,1.733,2.459,2.458l4.192-1.993c0.648,0.347,1.334,0.633,2.05,0.851l1.557,4.377c0.571,0.064,1.148,0.104,1.737,0.104c0.588,0,1.165-0.04,1.736-0.104l1.558-4.377c0.715-0.218,1.399-0.504,2.049-0.851l4.193,1.993c0.909-0.725,1.733-1.549,2.458-2.458l-1.993-4.193c0.347-0.647,0.633-1.334,0.851-2.049L31.229,17.736zM16,20.871c-2.69,0-4.872-2.182-4.872-4.871c0-2.69,2.182-4.872,4.872-4.872c2.689,0,4.871,2.182,4.871,4.872C20.871,18.689,18.689,20.871,16,20.871z"></path><title>Link options.</title></g></g></g></g><g id="j_109" model-id="f8f6f542-cf54-45b7-acc2-2061abafeae9" class="incredible Link link joint-theme-default" style="pointer-events: visiblepainted;"><path class="connection" stroke="black" d="M 627 490 634 490 S 640 490 647 490 L 653 490" id="v-7198" stroke-width="2"></path><path class="marker-source" fill="black" stroke="black" d="M 0 0 0 0" id="v-7199" transform="translate(627,490) scale(1,1) rotate(0)"></path><path class="marker-target" fill="black" stroke="black" d="M 0 0 0 0" id="v-7200" transform="translate(653,490) scale(1,1) rotate(-180)"></path><path class="connection-wrap" d="M 627 490 634 490 S 640 490 647 490 L 653 490" id="v-7201"></path><g class="labels" id="v-7202"><g class="label" id="v-8050" label-idx="0" transform="translate(640, 490)"><rect fill="white" rx="3" ry="3" x="-5.649999618530273" y="-13.299999237060547" width="11.300000190734863" height="18.66666603088379"></rect><text text-anchor="middle" font-size="14" id="v-8051" y="0.8em" display="null" xml:space="preserve" transform="translate(0,-9.333333015441895)"><tspan dy="0em" x="0" id="v-8052" class="v-line">⊥</tspan></text></g></g><g class="marker-vertices" id="v-7203"></g><g class="marker-arrowheads" id="v-7204"><g class="marker-arrowhead-group marker-arrowhead-group-source" id="v-7207" transform="translate(630.5,490) scale(0.5,0.5) rotate(0)"><circle class="marker-arrowhead" end="source" r="7"></circle></g><g class="marker-arrowhead-group marker-arrowhead-group-target" id="v-7208" transform="translate(649.5,490) scale(0.5,0.5) rotate(-180)"><circle class="marker-arrowhead" end="target" r="7"></circle></g></g><g class="link-tools" id="v-7205"><g class="link-tool" id="v-7206" transform="translate(647, 490) scale(.5)"><g class="tool-remove" event="remove"><circle r="11"></circle><path transform="scale(.8) translate(-16, -16)" d="M24.778,21.419 19.276,15.917 24.777,10.415 21.949,7.585 16.447,13.087 10.945,7.585 8.117,10.415 13.618,15.917 8.116,21.419 10.946,24.248 16.447,18.746 21.948,24.248z"></path><title>Remove link.</title></g><g class="tool-options" event="link:options"><circle r="11" transform="translate(25)"></circle><path fill="white" transform="scale(.55) translate(29, -16)" d="M31.229,17.736c0.064-0.571,0.104-1.148,0.104-1.736s-0.04-1.166-0.104-1.737l-4.377-1.557c-0.218-0.716-0.504-1.401-0.851-2.05l1.993-4.192c-0.725-0.91-1.549-1.734-2.458-2.459l-4.193,1.994c-0.647-0.347-1.334-0.632-2.049-0.849l-1.558-4.378C17.165,0.708,16.588,0.667,16,0.667s-1.166,0.041-1.737,0.105L12.707,5.15c-0.716,0.217-1.401,0.502-2.05,0.849L6.464,4.005C5.554,4.73,4.73,5.554,4.005,6.464l1.994,4.192c-0.347,0.648-0.632,1.334-0.849,2.05l-4.378,1.557C0.708,14.834,0.667,15.412,0.667,16s0.041,1.165,0.105,1.736l4.378,1.558c0.217,0.715,0.502,1.401,0.849,2.049l-1.994,4.193c0.725,0.909,1.549,1.733,2.459,2.458l4.192-1.993c0.648,0.347,1.334,0.633,2.05,0.851l1.557,4.377c0.571,0.064,1.148,0.104,1.737,0.104c0.588,0,1.165-0.04,1.736-0.104l1.558-4.377c0.715-0.218,1.399-0.504,2.049-0.851l4.193,1.993c0.909-0.725,1.733-1.549,2.458-2.458l-1.993-4.193c0.347-0.647,0.633-1.334,0.851-2.049L31.229,17.736zM16,20.871c-2.69,0-4.872-2.182-4.872-4.871c0-2.69,2.182-4.872,4.872-4.872c2.689,0,4.871,2.182,4.871,4.872C20.871,18.689,18.689,20.871,16,20.871z"></path><title>Link options.</title></g></g></g></g><g id="j_110" model-id="9448d967-35ee-44e2-97b2-a54329b4f497" class="element incredible Generic joint-theme-default" magnet="false" fill="#ffffff" stroke="none" transform="translate(700,490)"><g class="block" id="v-7312"><rect class="body" fill="#ecf0f1" rx="5" ry="5" stroke="#bdc3c7" stroke-opacity="0.5" id="v-7317" width="80" height="35" transform="translate(-40,-17.5)"></rect><text class="number" id="v-7313" y="0.8em" display="null" xml:space="preserve" transform="translate(30.550000190734863,7.75)"><tspan dy="0em" x="0" id="v-7314" class="v-line">7</tspan></text><text class="label left" id="v-7315" y="0.8em" display="null" xml:space="preserve" transform="translate(-25,-8)"><tspan dy="0em" x="0" id="v-7316" class="v-line">⊥</tspan></text><g id="v-7318" class="port-wrap-in" transform="translate(-40,0)"><path class="port-body" stroke="none" fill="#777" id="v-7319" magnet="true" port="in" direction="in" orientation="left" d="M0,0 l 0 5 a5,5 0 1,1 5,-5 z" transform="rotate(135)"></path></g><g id="v-7320" class="port-wrap-out" transform="translate(40,0)"><path class="port-body" stroke="none" fill="#777" id="v-7321" magnet="true" port="out" direction="out" orientation="right" d="M-5,-5 l 0 5 a5,5 0 1,0 5,-5 z" transform="rotate(135)"></path></g><g class="tool-remove" event="remove" id="v-7322" transform="translate(20,-17.5)"><circle r="11"></circle><path transform="scale(.8) translate(-16, -16)" d="M24.778,21.419 19.276,15.917 24.777,10.415 21.949,7.585 16.447,13.087 10.945,7.585 8.117,10.415 13.618,15.917 8.116,21.419 10.946,24.248 16.447,18.746 21.948,24.248z"></path><title id="v-7323" y="0.8em" display="null" xml:space="preserve"><tspan dy="0em" x="0" id="v-7324" class="v-line">Remove&#160;element</tspan></title></g></g></g><g id="j_111" model-id="e5e5bb6a-fb24-4523-aff6-09d8e246c080" class="incredible Link link joint-theme-default" style="pointer-events: visiblepainted;"><path class="connection" stroke="black" d="M 747 490 754 490 S 760 490 760 500 L 760 500 S 760 510 767 510 L 773 510" id="v-7373" stroke-width="2"></path><path class="marker-source" fill="black" stroke="black" d="M 0 0 0 0" id="v-7374" transform="translate(747,490) scale(1,1) rotate(0)"></path><path class="marker-target" fill="black" stroke="black" d="M 0 0 0 0" id="v-7375" transform="translate(773,510) scale(1,1) rotate(-180)"></path><path class="connection-wrap" d="M 747 490 754 490 S 760 490 760 500 L 760 500 S 760 510 767 510 L 773 510" id="v-7376"></path><g class="labels" id="v-7377"><g class="label" id="v-8054" label-idx="0" transform="translate(759.9995727539062, 499.8760070800781)"><rect fill="white" rx="3" ry="3" x="-4.666666507720947" y="-9.508333086967468" width="9.333333015441895" height="15.75"></rect><text text-anchor="middle" font-size="14" id="v-8055" y="0.8em" display="null" xml:space="preserve" transform="translate(0,-7.875)"><tspan dy="0em" x="0" id="v-8056" class="v-line">B</tspan></text></g></g><g class="marker-vertices" id="v-7378"></g><g class="marker-arrowheads" id="v-7379"><g class="marker-arrowhead-group marker-arrowhead-group-source" id="v-7382" transform="translate(750.5,490) scale(0.5,0.5) rotate(0)"><circle class="marker-arrowhead" end="source" r="7"></circle></g><g class="marker-arrowhead-group marker-arrowhead-group-target" id="v-7383" transform="translate(769.5,510) scale(0.5,0.5) rotate(-180)"><circle class="marker-arrowhead" end="target" r="7"></circle></g></g><g class="link-tools" id="v-7380"><g class="link-tool" id="v-7381" transform="translate(760.0028076171875, 500.1514587402344) scale(.5)"><g class="tool-remove" event="remove"><circle r="11"></circle><path transform="scale(.8) translate(-16, -16)" d="M24.778,21.419 19.276,15.917 24.777,10.415 21.949,7.585 16.447,13.087 10.945,7.585 8.117,10.415 13.618,15.917 8.116,21.419 10.946,24.248 16.447,18.746 21.948,24.248z"></path><title>Remove link.</title></g><g class="tool-options" event="link:options"><circle r="11" transform="translate(25)"></circle><path fill="white" transform="scale(.55) translate(29, -16)" d="M31.229,17.736c0.064-0.571,0.104-1.148,0.104-1.736s-0.04-1.166-0.104-1.737l-4.377-1.557c-0.218-0.716-0.504-1.401-0.851-2.05l1.993-4.192c-0.725-0.91-1.549-1.734-2.458-2.459l-4.193,1.994c-0.647-0.347-1.334-0.632-2.049-0.849l-1.558-4.378C17.165,0.708,16.588,0.667,16,0.667s-1.166,0.041-1.737,0.105L12.707,5.15c-0.716,0.217-1.401,0.502-2.05,0.849L6.464,4.005C5.554,4.73,4.73,5.554,4.005,6.464l1.994,4.192c-0.347,0.648-0.632,1.334-0.849,2.05l-4.378,1.557C0.708,14.834,0.667,15.412,0.667,16s0.041,1.165,0.105,1.736l4.378,1.558c0.217,0.715,0.502,1.401,0.849,2.049l-1.994,4.193c0.725,0.909,1.549,1.733,2.459,2.458l4.192-1.993c0.648,0.347,1.334,0.633,2.05,0.851l1.557,4.377c0.571,0.064,1.148,0.104,1.737,0.104c0.588,0,1.165-0.04,1.736-0.104l1.558-4.377c0.715-0.218,1.399-0.504,2.049-0.851l4.193,1.993c0.909-0.725,1.733-1.549,2.458-2.458l-1.993-4.193c0.347-0.647,0.633-1.334,0.851-2.049L31.229,17.736zM16,20.871c-2.69,0-4.872-2.182-4.872-4.871c0-2.69,2.182-4.872,4.872-4.872c2.689,0,4.871,2.182,4.871,4.872C20.871,18.689,18.689,20.871,16,20.871z"></path><title>Link options.</title></g></g></g></g><g id="j_112" model-id="f7159eae-6045-4c39-a56f-e2b8ee80c496" class="element incredible Generic joint-theme-default" magnet="false" fill="#ffffff" stroke="none" transform="translate(900,460)"><g class="block" id="v-7469"><rect class="body" fill="#ecf0f1" rx="5" ry="5" stroke="#bdc3c7" stroke-opacity="0.5" id="v-7474" width="80" height="35" transform="translate(-40,-17.5)"></rect><text class="number" id="v-7470" y="0.8em" display="null" xml:space="preserve" transform="translate(30.550000190734863,7.75)"><tspan dy="0em" x="0" id="v-7471" class="v-line">8</tspan></text><text class="label left" id="v-7472" y="0.8em" display="null" xml:space="preserve" transform="translate(-28,-9)"><tspan dy="0em" x="0" id="v-7473" class="v-line">→</tspan></text><g id="v-7475" class="port-wrap-in1" transform="translate(-40,-10)"><path class="port-body" stroke="none" fill="#777" id="v-7476" magnet="true" port="in1" direction="in" orientation="left" d="M0,0 l 0 5 a5,5 0 1,1 5,-5 z" transform="rotate(135)"></path></g><g id="v-7477" class="port-wrap-in2" transform="translate(-40,10)"><path class="port-body" stroke="none" fill="#777" id="v-7478" magnet="true" port="in2" direction="in" orientation="left" d="M0,0 l 0 5 a5,5 0 1,1 5,-5 z" transform="rotate(135)"></path></g><g id="v-7479" class="port-wrap-out" transform="translate(40,0)"><path class="port-body" stroke="none" fill="#777" id="v-7480" magnet="true" port="out" direction="out" orientation="right" d="M-5,-5 l 0 5 a5,5 0 1,0 5,-5 z" transform="rotate(135)"></path></g><g class="tool-remove" event="remove" id="v-7481" transform="translate(20,-17.5)"><circle r="11"></circle><path transform="scale(.8) translate(-16, -16)" d="M24.778,21.419 19.276,15.917 24.777,10.415 21.949,7.585 16.447,13.087 10.945,7.585 8.117,10.415 13.618,15.917 8.116,21.419 10.946,24.248 16.447,18.746 21.948,24.248z"></path><title id="v-7482" y="0.8em" display="null" xml:space="preserve"><tspan dy="0em" x="0" id="v-7483" class="v-line">Remove&#160;element</tspan></title></g></g></g><g id="j_113" model-id="4f9f85a2-f98d-44f6-a185-74068e3de863" class="incredible Link link joint-theme-default" style="pointer-events: visiblepainted;"><path class="connection" stroke="black" d="M 687 440 694 440 S 700 440 710 440 L 830 440 S 840 440 840 445 L 840 445 S 840 450 847 450 L 853 450" id="v-7512" stroke-width="2"></path><path class="marker-source" fill="black" stroke="black" d="M 0 0 0 0" id="v-7513" transform="translate(687,440) scale(1,1) rotate(0)"></path><path class="marker-target" fill="black" stroke="black" d="M 0 0 0 0" id="v-7514" transform="translate(853,450) scale(1,1) rotate(-180)"></path><path class="connection-wrap" d="M 687 440 694 440 S 700 440 710 440 L 830 440 S 840 440 840 445 L 840 445 S 840 450 847 450 L 853 450" id="v-7515"></path><g class="labels" id="v-7516"><g class="label" id="v-8058" label-idx="0" transform="translate(772.3999633789062, 440)"><rect fill="white" rx="3" ry="3" x="-32.666664123535156" y="-9.541666388511658" width="65.4000015258789" height="15.816666603088379"></rect><text text-anchor="middle" font-size="14" id="v-8059" y="0.8em" display="null" xml:space="preserve" transform="translate(0,-7.9083333015441895)"><tspan dy="0em" x="0" id="v-8060" class="v-line">(A→B)→A</tspan></text></g></g><g class="marker-vertices" id="v-7517"></g><g class="marker-arrowheads" id="v-7518"><g class="marker-arrowhead-group marker-arrowhead-group-source" id="v-7521" transform="translate(694,440) scale(1,1) rotate(0)"><circle class="marker-arrowhead" end="source" r="7"></circle></g><g class="marker-arrowhead-group marker-arrowhead-group-target" id="v-7522" transform="translate(846,450) scale(1,1) rotate(-180)"><circle class="marker-arrowhead" end="target" r="7"></circle></g></g><g class="link-tools" id="v-7519"><g class="link-tool" id="v-7520" transform="translate(727, 440) "><g class="tool-remove" event="remove"><circle r="11"></circle><path transform="scale(.8) translate(-16, -16)" d="M24.778,21.419 19.276,15.917 24.777,10.415 21.949,7.585 16.447,13.087 10.945,7.585 8.117,10.415 13.618,15.917 8.116,21.419 10.946,24.248 16.447,18.746 21.948,24.248z"></path><title>Remove link.</title></g><g class="tool-options" event="link:options"><circle r="11" transform="translate(25)"></circle><path fill="white" transform="scale(.55) translate(29, -16)" d="M31.229,17.736c0.064-0.571,0.104-1.148,0.104-1.736s-0.04-1.166-0.104-1.737l-4.377-1.557c-0.218-0.716-0.504-1.401-0.851-2.05l1.993-4.192c-0.725-0.91-1.549-1.734-2.458-2.459l-4.193,1.994c-0.647-0.347-1.334-0.632-2.049-0.849l-1.558-4.378C17.165,0.708,16.588,0.667,16,0.667s-1.166,0.041-1.737,0.105L12.707,5.15c-0.716,0.217-1.401,0.502-2.05,0.849L6.464,4.005C5.554,4.73,4.73,5.554,4.005,6.464l1.994,4.192c-0.347,0.648-0.632,1.334-0.849,2.05l-4.378,1.557C0.708,14.834,0.667,15.412,0.667,16s0.041,1.165,0.105,1.736l4.378,1.558c0.217,0.715,0.502,1.401,0.849,2.049l-1.994,4.193c0.725,0.909,1.549,1.733,2.459,2.458l4.192-1.993c0.648,0.347,1.334,0.633,2.05,0.851l1.557,4.377c0.571,0.064,1.148,0.104,1.737,0.104c0.588,0,1.165-0.04,1.736-0.104l1.558-4.377c0.715-0.218,1.399-0.504,2.049-0.851l4.193,1.993c0.909-0.725,1.733-1.549,2.458-2.458l-1.993-4.193c0.347-0.647,0.633-1.334,0.851-2.049L31.229,17.736zM16,20.871c-2.69,0-4.872-2.182-4.872-4.871c0-2.69,2.182-4.872,4.872-4.872c2.689,0,4.871,2.182,4.871,4.872C20.871,18.689,18.689,20.871,16,20.871z"></path><title>Link options.</title></g></g></g></g><g id="j_114" model-id="f4f1faef-6184-4bb5-893c-cbdd5db12837" class="incredible Link link joint-theme-default" style="pointer-events: visiblepainted;"><path class="connection" stroke="black" d="M 817 520 824 520 S 830 520 835 520 L 835 520 S 840 520 840 510 L 840 480 S 840 470 847 470 L 853 470" id="v-7727" stroke-width="2"></path><path class="marker-source" fill="black" stroke="black" d="M 0 0 0 0" id="v-7728" transform="translate(817,520) scale(1,1) rotate(0)"></path><path class="marker-target" fill="black" stroke="black" d="M 0 0 0 0" id="v-7729" transform="translate(853,470) scale(1,1) rotate(-180)"></path><path class="connection-wrap" d="M 817 520 824 520 S 830 520 835 520 L 835 520 S 840 520 840 510 L 840 480 S 840 470 847 470 L 853 470" id="v-7730"></path><g class="labels" id="v-7731"><g class="label" id="v-8062" label-idx="0" transform="translate(840, 500.2868347167969)"><rect fill="white" rx="3" ry="3" x="-16.383333206176758" y="-9.508333086967468" width="32.71666717529297" height="15.75"></rect><text text-anchor="middle" font-size="14" id="v-8063" y="0.8em" display="null" xml:space="preserve" transform="translate(0,-7.875)"><tspan dy="0em" x="0" id="v-8064" class="v-line">A→B</tspan></text></g></g><g class="marker-vertices" id="v-7732"></g><g class="marker-arrowheads" id="v-7733"><g class="marker-arrowhead-group marker-arrowhead-group-source" id="v-7736" transform="translate(820.5,520) scale(0.5,0.5) rotate(0)"><circle class="marker-arrowhead" end="source" r="7"></circle></g><g class="marker-arrowhead-group marker-arrowhead-group-target" id="v-7737" transform="translate(849.5,470) scale(0.5,0.5) rotate(-180)"><circle class="marker-arrowhead" end="target" r="7"></circle></g></g><g class="link-tools" id="v-7734"><g class="link-tool" id="v-7735" transform="translate(836.8472290039062, 519.30029296875) scale(.5)"><g class="tool-remove" event="remove"><circle r="11"></circle><path transform="scale(.8) translate(-16, -16)" d="M24.778,21.419 19.276,15.917 24.777,10.415 21.949,7.585 16.447,13.087 10.945,7.585 8.117,10.415 13.618,15.917 8.116,21.419 10.946,24.248 16.447,18.746 21.948,24.248z"></path><title>Remove link.</title></g><g class="tool-options" event="link:options"><circle r="11" transform="translate(25)"></circle><path fill="white" transform="scale(.55) translate(29, -16)" d="M31.229,17.736c0.064-0.571,0.104-1.148,0.104-1.736s-0.04-1.166-0.104-1.737l-4.377-1.557c-0.218-0.716-0.504-1.401-0.851-2.05l1.993-4.192c-0.725-0.91-1.549-1.734-2.458-2.459l-4.193,1.994c-0.647-0.347-1.334-0.632-2.049-0.849l-1.558-4.378C17.165,0.708,16.588,0.667,16,0.667s-1.166,0.041-1.737,0.105L12.707,5.15c-0.716,0.217-1.401,0.502-2.05,0.849L6.464,4.005C5.554,4.73,4.73,5.554,4.005,6.464l1.994,4.192c-0.347,0.648-0.632,1.334-0.849,2.05l-4.378,1.557C0.708,14.834,0.667,15.412,0.667,16s0.041,1.165,0.105,1.736l4.378,1.558c0.217,0.715,0.502,1.401,0.849,2.049l-1.994,4.193c0.725,0.909,1.549,1.733,2.459,2.458l4.192-1.993c0.648,0.347,1.334,0.633,2.05,0.851l1.557,4.377c0.571,0.064,1.148,0.104,1.737,0.104c0.588,0,1.165-0.04,1.736-0.104l1.558-4.377c0.715-0.218,1.399-0.504,2.049-0.851l4.193,1.993c0.909-0.725,1.733-1.549,2.458-2.458l-1.993-4.193c0.347-0.647,0.633-1.334,0.851-2.049L31.229,17.736zM16,20.871c-2.69,0-4.872-2.182-4.872-4.871c0-2.69,2.182-4.872,4.872-4.872c2.689,0,4.871,2.182,4.871,4.872C20.871,18.689,18.689,20.871,16,20.871z"></path><title>Link options.</title></g></g></g></g><g id="j_115" model-id="ecc5b7f8-9342-47f3-bb66-ece7198b742b" class="incredible Link link joint-theme-default" style="pointer-events: visiblepainted;"><path class="connection" stroke="black" d="M 947 460 954 460 S 960 460 960 450 L 960 410 S 960 400 967 400 L 973 400" id="v-7852" stroke-width="2"></path><path class="marker-source" fill="black" stroke="black" d="M 0 0 0 0" id="v-7853" transform="translate(947,460) scale(1,1) rotate(0)"></path><path class="marker-target" fill="black" stroke="black" d="M 0 0 0 0" id="v-7854" transform="translate(973,400) scale(1,1) rotate(-180)"></path><path class="connection-wrap" d="M 947 460 954 460 S 960 460 960 450 L 960 410 S 960 400 967 400 L 973 400" id="v-7855"></path><g class="labels" id="v-7856"><g class="label" id="v-8066" label-idx="0" transform="translate(960, 430.1240234375)"><rect fill="white" rx="3" ry="3" x="-4.7166666984558105" y="-9.508333086967468" width="9.449999809265137" height="15.75"></rect><text text-anchor="middle" font-size="14" id="v-8067" y="0.8em" display="null" xml:space="preserve" transform="translate(0,-7.875)"><tspan dy="0em" x="0" id="v-8068" class="v-line">A</tspan></text></g></g><g class="marker-vertices" id="v-7857"></g><g class="marker-arrowheads" id="v-7858"><g class="marker-arrowhead-group marker-arrowhead-group-source" id="v-7861" transform="translate(950.5,460) scale(0.5,0.5) rotate(0)"><circle class="marker-arrowhead" end="source" r="7"></circle></g><g class="marker-arrowhead-group marker-arrowhead-group-target" id="v-7862" transform="translate(969.5,400) scale(0.5,0.5) rotate(-180)"><circle class="marker-arrowhead" end="target" r="7"></circle></g></g><g class="link-tools" id="v-7859"><g class="link-tool" id="v-7860" transform="translate(960, 449.8485107421875) scale(.5)"><g class="tool-remove" event="remove"><circle r="11"></circle><path transform="scale(.8) translate(-16, -16)" d="M24.778,21.419 19.276,15.917 24.777,10.415 21.949,7.585 16.447,13.087 10.945,7.585 8.117,10.415 13.618,15.917 8.116,21.419 10.946,24.248 16.447,18.746 21.948,24.248z"></path><title>Remove link.</title></g><g class="tool-options" event="link:options"><circle r="11" transform="translate(25)"></circle><path fill="white" transform="scale(.55) translate(29, -16)" d="M31.229,17.736c0.064-0.571,0.104-1.148,0.104-1.736s-0.04-1.166-0.104-1.737l-4.377-1.557c-0.218-0.716-0.504-1.401-0.851-2.05l1.993-4.192c-0.725-0.91-1.549-1.734-2.458-2.459l-4.193,1.994c-0.647-0.347-1.334-0.632-2.049-0.849l-1.558-4.378C17.165,0.708,16.588,0.667,16,0.667s-1.166,0.041-1.737,0.105L12.707,5.15c-0.716,0.217-1.401,0.502-2.05,0.849L6.464,4.005C5.554,4.73,4.73,5.554,4.005,6.464l1.994,4.192c-0.347,0.648-0.632,1.334-0.849,2.05l-4.378,1.557C0.708,14.834,0.667,15.412,0.667,16s0.041,1.165,0.105,1.736l4.378,1.558c0.217,0.715,0.502,1.401,0.849,2.049l-1.994,4.193c0.725,0.909,1.549,1.733,2.459,2.458l4.192-1.993c0.648,0.347,1.334,0.633,2.05,0.851l1.557,4.377c0.571,0.064,1.148,0.104,1.737,0.104c0.588,0,1.165-0.04,1.736-0.104l1.558-4.377c0.715-0.218,1.399-0.504,2.049-0.851l4.193,1.993c0.909-0.725,1.733-1.549,2.458-2.458l-1.993-4.193c0.347-0.647,0.633-1.334,0.851-2.049L31.229,17.736zM16,20.871c-2.69,0-4.872-2.182-4.872-4.871c0-2.69,2.182-4.872,4.872-4.872c2.689,0,4.871,2.182,4.871,4.872C20.871,18.689,18.689,20.871,16,20.871z"></path><title>Link options.</title></g></g></g></g></g><defs id="v-4"></defs></svg>